<svg xmlns="http://www.w3.org/2000/svg" width="48" height="48" viewBox="0 0 48 48">
  <!-- Body -->
  <ellipse cx="24" cy="28" rx="16" ry="14" fill="#FCD34D"/>
  <!-- Head -->
  <circle cx="24" cy="14" r="12" fill="#FCD34D"/>
  <!-- Eye left -->
  <circle cx="20" cy="12" r="2.5" fill="#1F2937"/>
  <circle cx="19" cy="11" r="1" fill="#FFF"/>
  <!-- Eye right -->
  <circle cx="28" cy="12" r="2.5" fill="#1F2937"/>
  <circle cx="27" cy="11" r="1" fill="#FFF"/>
  <!-- Beak -->
  <path d="M24 15 L21 19 L27 19 Z" fill="#F97316"/>
  <!-- Wing left -->
  <ellipse cx="10" cy="28" rx="5" ry="8" fill="#FBBF24"/>
  <!-- Wing right -->
  <ellipse cx="38" cy="28" rx="5" ry="8" fill="#FBBF24"/>
  <!-- Feet -->
  <path d="M18 40 L15 46 M18 40 L18 46 M18 40 L21 46" stroke="#F97316" stroke-width="2" stroke-linecap="round"/>
  <path d="M30 40 L27 46 M30 40 L30 46 M30 40 L33 46" stroke="#F97316" stroke-width="2" stroke-linecap="round"/>
  <!-- Tuft -->
  <path d="M24 2 Q26 6 24 8 Q22 6 24 2" fill="#F97316"/>
  <path d="M20 4 Q23 7 22 10" stroke="#F97316" stroke-width="1.5" stroke-linecap="round" fill="none"/>
  <path d="M28 4 Q25 7 26 10" stroke="#F97316" stroke-width="1.5" stroke-linecap="round" fill="none"/>
</svg>
